<svg xmlns="http://www.w3.org/2000/svg" viewBox="0 0 64 64" id="heart-envelope">
  <g fill="none" stroke="#000" stroke-linejoin="round" stroke-width="2">
    <path d="M53 24.84 33.12 10.05a2 2 0 0 0-2.39 0L11 24.84"></path>
    <path d="M20.13 31.07C18.05 24.66 25.66 19.16 32 25.5c6.34-6.34 13.94-.83 11.87 5.58"></path>
    <path d="M51.32 24.84H53v28a2 2 0 0 1-2 2H13a2 2 0 0 1-2-2v-28h1.68"></path>
    <path d="M32 54.84H13l9.5-7.5 9.5-7.5 9.5 7.5 9.5 7.5H32z"></path>
    <path d="M11.92 25.16 32 40.09l20-14.87"></path>
  </g>
  <path fill="none" d="M0 0h64v64H0z"></path>
</svg>
