<svg xmlns="http://www.w3.org/2000/svg" viewBox="0 0 64 64" id="location">
  <path d="M48.51 11.23a23 23 0 0 0-33 0c-8.81 9.08-8.33 23.69.62 32.64l15.16 15.19a1 1 0 0 0 1.41 0l15.2-15.19c8.94-8.95 9.42-23.56.61-32.64z" fill="none" stroke="#000" stroke-linecap="round" stroke-linejoin="round" stroke-width="2px"></path>
  <path d="M42.81 19.69a7.64 7.64 0 0 0-10.81 0 7.64 7.64 0 0 0-10.81 0c-3 3-2.15 8.35.19 11.86s8.16 8 10 9.33a1 1 0 0 0 1.17 0c1.86-1.37 7.67-5.79 10-9.33s3.24-8.87.26-11.86z" fill="none" stroke="#000" stroke-linecap="round" stroke-linejoin="round" stroke-width="2px"></path>
</svg>
