<svg xmlns="http://www.w3.org/2000/svg" enable-background="new 0 0 64 64" viewBox="0 0 64 64" id="love-letter">
  <path fill="#2d2d2d" d="M31.8 31.38c-.18 0-.36-.05-.52-.15-.55-.35-13.34-8.56-10.33-16.57.86-2.28 2.2-3.69 4-4.18 2.72-.75 5.62.89 6.85 1.72 1.23-.83 4.12-2.47 6.85-1.72 1.8.5 3.15 1.9 4.01 4.18 3 8-9.79 16.22-10.33 16.57C32.16 31.32 31.98 31.38 31.8 31.38zM26.43 12.22c-.33 0-.65.04-.97.12-1.17.32-2.08 1.33-2.7 2.99-2.15 5.74 6.76 12.33 9.04 13.9 2.28-1.57 11.19-8.16 9.04-13.9-.62-1.66-1.53-2.67-2.7-3-2.54-.7-5.7 1.78-5.73 1.8-.35.28-.86.28-1.21 0C31.17 14.12 28.74 12.22 26.43 12.22zM43.22 11.1c-.25 0-.5-.09-.69-.28-.38-.38-.38-.99 0-1.37l1.71-1.71c.38-.38.99-.38 1.37 0 .38.38.38.99 0 1.37l-1.71 1.71C43.72 11.01 43.47 11.1 43.22 11.1zM46.49 13.96h-2.41c-.54 0-.97-.43-.97-.97s.43-.97.97-.97h2.41c.54 0 .97.43.97.97S47.02 13.96 46.49 13.96zM20.37 11.1c-.25 0-.5-.09-.69-.28l-1.71-1.71c-.38-.38-.38-.99 0-1.37.38-.38.99-.38 1.37 0l1.71 1.71c.38.38.38.99 0 1.37C20.87 11.01 20.62 11.1 20.37 11.1zM19.52 13.96h-2.41c-.54 0-.97-.43-.97-.97s.43-.97.97-.97h2.41c.54 0 .97.43.97.97S20.06 13.96 19.52 13.96z"></path>
  <path fill="#2d2d2d" d="M61.29,64H2.31c-0.54,0-0.97-0.43-0.97-0.97V28.14c0-0.32,0.16-0.61,0.42-0.8l11.74-8.18
					c0.44-0.31,1.04-0.2,1.35,0.24c0.31,0.44,0.2,1.04-0.24,1.35L3.28,28.65v33.41h57.04V28.65l-11.33-7.9
					c-0.44-0.31-0.55-0.91-0.24-1.35c0.31-0.44,0.91-0.55,1.35-0.24l11.75,8.19c0.26,0.18,0.41,0.48,0.41,0.8v34.88
					C62.26,63.56,61.83,64,61.29,64z"></path>
  <path fill="#2d2d2d" d="M31.61,49.59c-0.19,0-0.39-0.06-0.56-0.18L1.75,28.94c-0.44-0.31-0.55-0.91-0.24-1.35
					c0.31-0.44,0.91-0.55,1.35-0.24l28.75,20.1l29.12-20.1c0.44-0.3,1.04-0.19,1.35,0.25c0.3,0.44,0.19,1.05-0.25,1.35L32.16,49.42
					C32,49.54,31.8,49.59,31.61,49.59z"></path>
  <path fill="#2d2d2d" d="M2.31 64c-.23 0-.46-.08-.64-.24-.4-.35-.44-.97-.09-1.37l18.98-21.62c.35-.4.96-.44 1.37-.09.4.35.44.97.09 1.37L3.04 63.67C2.85 63.89 2.58 64 2.31 64zM61.29 64c-.27 0-.53-.11-.72-.32L41.33 42.06c-.36-.4-.32-1.01.08-1.37.4-.36 1.01-.32 1.37.08l19.23 21.62c.36.4.32 1.01-.08 1.37C61.75 63.92 61.52 64 61.29 64z"></path>
  <g>
    <path fill="#2d2d2d" d="M14.05,37.32c-0.54,0-0.97-0.43-0.97-0.97V4.26c0-2.35,1.91-4.26,4.26-4.26h28.92
				c2.35,0,4.26,1.91,4.26,4.26v32c0,0.54-0.43,0.97-0.97,0.97s-0.97-0.43-0.97-0.97v-32c0-1.28-1.04-2.32-2.32-2.32H17.34
				c-1.28,0-2.32,1.04-2.32,2.32v32.1C15.02,36.89,14.59,37.32,14.05,37.32z"></path>
  </g>
  <g>
    <path fill="#f93838" d="M57.83 6.21c-.54 0-.97-.43-.97-.97V3.13c0-.54.43-.97.97-.97.54 0 .97.43.97.97v2.12C58.8 5.78 58.37 6.21 57.83 6.21zM57.83 13.05c-.54 0-.97-.43-.97-.97v-1.76c0-.54.43-.97.97-.97.54 0 .97.43.97.97v1.76C58.8 12.62 58.37 13.05 57.83 13.05z"></path>
    <g>
      <path fill="#f93838" d="M55.31 8.57h-2.12c-.54 0-.97-.43-.97-.97 0-.54.43-.97.97-.97h2.12c.54 0 .97.43.97.97C56.28 8.14 55.85 8.57 55.31 8.57zM62.14 8.57h-1.76c-.54 0-.97-.43-.97-.97 0-.54.43-.97.97-.97h1.76c.54 0 .97.43.97.97C63.11 8.14 62.68 8.57 62.14 8.57z"></path>
    </g>
  </g>
  <g>
    <path fill="#f93838" d="M6.5 14.34c-.54 0-.97-.43-.97-.97v-2.12c0-.54.43-.97.97-.97s.97.43.97.97v2.12C7.47 13.91 7.03 14.34 6.5 14.34zM6.5 21.17c-.54 0-.97-.43-.97-.97v-1.76c0-.54.43-.97.97-.97s.97.43.97.97v1.76C7.47 20.74 7.03 21.17 6.5 21.17z"></path>
    <g>
      <path fill="#f93838" d="M3.98 16.7H1.86c-.54 0-.97-.43-.97-.97 0-.54.43-.97.97-.97h2.12c.54 0 .97.43.97.97C4.95 16.26 4.51 16.7 3.98 16.7zM10.81 16.7H9.05c-.54 0-.97-.43-.97-.97 0-.54.43-.97.97-.97h1.76c.54 0 .97.43.97.97C11.78 16.26 11.35 16.7 10.81 16.7z"></path>
    </g>
  </g>
</svg>
