<svg xmlns="http://www.w3.org/2000/svg" fill-rule="evenodd" stroke-linejoin="round" stroke-miterlimit="2" clip-rule="evenodd" viewBox="0 0 5000 5000" id="tulip-flower">
  <g transform="translate(-1641.04 -2014.48)scale(18.6698)">
    <path d="M152.165,227.972C147.056,229.488 150.38,226.04 152.165,227.972ZM157.049,212.893C157.157,213.097 157.261,213.293 157.359,213.478C158.806,216.201 160.658,218.591 162.757,220.756C165.944,224.044 169.693,226.817 173.453,229.453C178.175,232.76 182.936,236.013 187.823,239.065C191.075,241.097 194.383,243.038 197.77,244.85C201.544,246.867 205.626,248.443 209.489,250.358C211.176,251.195 212.822,252.095 214.383,253.124C217.594,255.232 220.32,257.875 222.627,260.859C224.923,263.828 226.803,267.137 228.324,270.598C229.894,274.161 231.146,277.709 232.12,281.267C232.291,279.808 232.38,278.377 232.34,276.953C232.274,274.58 231.852,272.225 230.856,269.787C229.046,265.372 225.868,260.912 224.301,256.185C223.593,254.048 223.205,251.858 223.395,249.594C223.583,247.308 224.252,245.245 225.19,243.306C227.325,238.893 230.903,235.14 233.365,230.872C233.679,230.324 233.966,229.768 234.226,229.204C233.768,225.236 233.095,221.196 232.051,217.32C230.743,212.466 228.849,207.872 226.08,204C225.972,203.849 225.861,203.703 225.748,203.561C225.729,203.554 225.709,203.546 225.69,203.536C224.093,202.752 222.366,202.343 220.592,202.157C217.859,201.87 215.021,202.1 212.37,202.316C208.657,202.633 204.908,203.002 201.2,202.852C198.696,202.751 196.207,202.422 193.759,201.647C190.91,200.765 187.386,198.866 185.059,196.256C183.403,194.399 182.356,192.184 182.49,189.715C182.513,189.27 182.57,188.952 182.64,188.694C182.767,188.226 182.958,187.981 183.133,187.434C183.164,187.34 183.212,187.256 183.273,187.186C181.636,185.615 180.223,183.801 179.118,181.722C178.225,180.05 177.363,177.598 177.528,175.472C177.652,173.877 178.333,172.459 179.899,171.58C180.865,171.038 181.96,170.806 183.069,170.796C184.139,170.787 185.221,170.99 186.202,171.317C186.607,171.452 187.239,171.625 187.774,171.818C187.907,171.865 188.035,171.915 188.154,171.966C188.261,170.531 188.645,169.08 189.306,167.848C190.309,165.975 191.93,164.615 194.122,164.458C193.956,164.02 193.824,163.572 193.729,163.118C193.249,160.836 193.695,158.418 195.387,156.465C196.097,155.64 196.985,154.968 197.964,154.468C198.94,153.969 200.007,153.646 201.078,153.517C201.3,153.49 203.006,153.678 203.699,153.757C203.809,153.769 203.932,153.742 203.928,153.781C204.071,153.79 204.212,153.841 204.332,153.933C205.698,152.556 207.256,151.379 208.939,150.421C211.395,149.024 214.12,148.093 216.933,147.729C218.435,147.532 219.992,147.508 221.538,147.639C223.082,147.769 224.614,148.057 226.066,148.485C226.6,148.641 227.138,148.815 227.669,149.008C228.207,149.203 228.736,149.42 229.246,149.659C229.511,149.784 230.236,150.146 230.353,150.428C230.535,150.493 230.684,150.628 230.768,150.798C232.37,148.623 235.365,146.128 238.368,145.398C240.598,144.855 242.834,145.24 244.577,147.322C245.386,148.288 245.663,149.201 245.594,150.054C245.532,150.828 245.168,151.567 244.604,152.262C244.63,152.287 244.656,152.314 244.681,152.344C244.853,152.548 245.204,153.232 245.225,153.284L245.767,154.902C245.954,155.586 246.108,156.276 246.241,156.971C246.438,158 246.588,159.038 246.725,160.076C247.055,162.546 247.194,165.045 247.161,167.541C247.128,170.034 246.924,172.525 246.548,174.982C246.005,178.699 245.079,182.353 243.601,185.732C242.107,189.148 240.046,192.286 237.177,194.909C235.052,196.861 231.523,197.933 228.981,199.731C228.134,200.329 227.405,201.014 226.918,201.872C227.304,202.268 227.688,202.852 227.924,203.006C228.565,203.426 229.165,203.891 229.734,204.392C230.294,204.884 230.825,205.41 231.341,205.959C232.987,207.708 234.363,209.528 235.38,211.52C236.406,213.527 237.07,215.707 237.275,218.164C237.474,220.51 237.334,222.808 236.847,225.032C236.518,226.532 236.032,227.999 235.384,229.422C235.773,232.786 236.014,236.094 236.192,239.207C236.427,243.201 236.353,247.184 236.128,251.163C235.608,260.384 234.261,269.58 233.989,278.812C233.936,280.613 233.799,282.325 233.786,284.05C233.78,284.826 233.8,285.604 233.866,286.395C234.158,284.957 234.535,283.482 235.009,281.892C235.527,280.155 236.211,278.48 236.978,276.838C238.107,274.419 239.416,272.071 240.628,269.695C242.662,265.703 244.776,261.642 246.787,257.51C246.518,255.852 246.064,254.214 245.525,252.598C244.882,250.674 244.07,248.682 243.872,246.68C243.731,245.262 243.892,243.839 244.589,242.425C245.363,240.857 246.472,239.667 247.762,238.683C250.038,236.948 252.913,235.891 255.406,234.424C255.263,234.25 255.195,234.017 255.239,233.778C255.559,232.132 255.511,230.333 255.267,228.481C254.699,224.162 253.097,219.566 252.424,215.851C251.716,212.024 251.718,208.151 252.301,204.363C252.881,200.586 254.039,196.888 255.744,193.415C255.961,192.968 256.186,192.524 256.419,192.084C256.654,191.643 256.897,191.206 257.152,190.776L258.6,188.549L260.016,186.727C261.022,185.54 263.154,183.855 265.161,183.368C266.676,183.001 268.12,183.271 269.125,184.667C269.637,184.243 270.169,183.853 270.721,183.502C272.827,182.158 274.786,182.1 276.404,182.887C277.142,183.246 277.812,183.789 278.392,184.484C278.601,184.335 278.81,184.195 278.835,184.179C279.257,183.892 279.69,183.634 280.135,183.396C280.786,183.048 281.459,182.742 282.143,182.448C283.52,181.853 284.99,181.144 286.48,180.579C287.518,180.185 288.565,179.858 289.601,179.688C290.39,179.557 291.126,179.576 291.728,179.817C292.403,180.086 292.941,180.612 293.207,181.544C293.41,182.247 293.481,182.998 293.466,183.756C293.444,184.838 293.246,185.938 293.015,186.934C292.829,187.764 292.578,188.592 292.266,189.401C292.742,189.423 293.177,189.495 293.581,189.646C294.055,189.823 294.491,190.1 294.892,190.537C295.511,191.212 295.814,191.963 295.923,192.757C296.067,193.815 295.851,194.953 295.637,196.046C295.212,198.237 294.486,200.352 293.547,202.379C293.626,202.376 293.703,202.387 293.776,202.408C293.89,202.322 294.49,202.622 294.668,202.75C294.905,202.92 295.094,203.143 295.234,203.401C295.397,203.702 295.499,204.049 295.564,204.368C295.69,204.986 295.692,205.601 295.599,206.205C295.468,207.057 295.155,207.887 294.774,208.664C293.755,210.746 292.358,212.626 290.747,214.311C289.154,215.977 287.353,217.456 285.496,218.745C283.196,220.362 280.834,221.741 278.384,222.941C275.934,224.141 273.396,225.163 270.717,226.009C267.665,226.984 264.28,227.713 261.476,229.269C261.348,229.34 261.222,229.412 261.098,229.486C261.07,229.887 260.992,230.283 260.871,230.671C260.399,232.177 259.266,233.549 258.026,234.476C257.526,234.849 256.997,235.189 256.449,235.509C255.426,239.688 254.024,243.798 252.399,247.842C251.056,251.185 249.561,254.482 247.999,257.736C248.003,257.761 248.006,257.786 248.009,257.811C248.264,259.725 248.278,261.66 247.918,263.615C246.293,272.703 239.495,279.714 235.031,287.484C234.709,289.309 234.524,291.095 234.446,293.016C234.439,293.191 234.433,293.367 234.427,293.544C234.866,297.619 235.008,301.744 234.907,305.954C234.988,307.089 235.077,308.288 235.171,309.561C235.194,309.885 235.004,310.176 234.72,310.297C234.656,311.351 234.578,312.412 234.487,313.479C234.768,311.988 235.036,310.494 235.338,309.007C235.79,306.775 236.198,304.534 236.62,302.299C236.837,299.453 237.436,296.725 238.341,294.107C238.456,293.639 238.575,293.171 238.697,292.705C239.644,289.113 240.842,285.592 242.54,282.208C244.394,278.509 246.885,275.27 249.656,272.227C250.532,271.265 251.436,270.323 252.359,269.393C252.342,269.189 252.404,268.978 252.548,268.811C254.395,266.687 256.313,264.644 258.036,262.444C259.16,261.009 260.202,259.508 261.08,257.869C261.815,256.498 262.425,255.083 262.977,253.647C264.3,250.204 265.297,246.647 266.846,243.29C267.009,242.937 267.422,242.039 267.981,241.035C267.969,241.049 267.955,241.062 267.941,241.075C267.64,241.351 267.17,241.331 266.893,241.029C266.114,240.169 266.218,239.078 266.931,237.987C268.03,236.306 270.634,234.611 271.446,234.304C276.046,232.559 279.574,233.918 281.432,236.628C282.247,237.815 282.741,239.277 282.853,240.87C282.977,240.866 283.099,240.893 283.209,240.948C283.229,240.955 283.258,240.965 283.283,240.973C283.773,241.133 284.952,241.517 285.174,241.7C285.888,242.29 286.442,243.021 286.853,243.833C287.249,244.616 287.515,245.472 287.668,246.338C288.219,249.447 287.587,252.263 286.232,254.764C284.915,257.195 282.911,259.329 280.665,261.133C279.886,261.761 279.095,262.368 278.294,262.957C278.46,263.282 278.709,263.537 278.964,263.8C279.337,264.184 279.727,264.572 280.033,265.068C280.282,265.473 280.48,265.945 280.574,266.533C281.184,270.37 280.157,274.129 278.269,277.609C275.551,282.621 271.047,287.053 267.293,290.256C263.912,293.157 259.553,295.902 255.11,298.999C249.251,303.083 243.226,307.769 239.098,314.149C235.315,319.995 233.155,327.282 234.203,336.864C234.398,336.999 234.526,337.224 234.524,337.479C234.522,337.766 234.357,338.014 234.118,338.136C233.992,338.295 233.806,338.406 233.589,338.432C233.155,338.483 232.761,338.172 232.71,337.737C232.698,337.629 232.686,337.521 232.675,337.413C232.592,337.245 232.517,337.048 232.456,336.826C232.054,335.382 232.075,332.638 232.063,332.219C231.99,329.686 232.058,327.186 232.202,324.695C232.229,324.217 232.26,323.739 232.293,323.262C231.643,323.219 231.024,323.055 230.441,322.797C229.159,322.231 228.047,321.207 227.152,320.079C225.932,318.542 224.996,316.778 224.205,314.924C224.007,314.459 223.818,313.989 223.636,313.515C223.51,313.428 223.407,313.302 223.348,313.148C221.03,306.952 217.542,301.674 213.806,297.443C208.614,291.562 202.955,287.696 199.341,286.157C194.539,284.144 189.661,282.247 185.025,279.907C181.908,278.333 178.898,276.563 176.099,274.403C174.33,273.041 172.46,271.542 171.007,269.761C169.998,268.524 169.191,267.15 168.739,265.597C168.594,265.101 168.133,263.334 168.666,261.057C168.926,259.948 169.423,258.717 170.314,257.453C168.933,256.748 167.56,255.967 166.238,255.149C162.187,252.645 158.616,249.785 156.815,247.608C154.973,245.391 153.2,242.9 151.904,240.221C151.022,238.397 150.361,236.487 150.046,234.514C149.925,233.758 149.864,232.964 149.903,232.178C149.944,231.361 150.098,230.554 150.401,229.803C150.529,229.488 150.702,229.164 150.915,228.878C151.072,228.667 151.253,228.477 151.452,228.32C151.592,228.21 151.919,228.072 152.171,227.978C152.179,227.987 152.188,227.997 152.196,228.006C152.258,227.961 152.327,227.925 152.403,227.9C152.365,227.912 152.327,227.924 152.289,227.935C152.332,227.92 152.37,227.907 152.401,227.897C150.456,224.981 149,221.658 148.246,217.76C147.675,214.888 147.379,211.616 147.936,208.598C148.32,206.518 149.107,204.556 150.482,202.913C152.498,200.496 155.298,199.96 157.887,200.662C160.409,201.346 162.724,203.229 163.886,205.699C164.435,206.868 164.759,208.301 164.522,209.56C164.346,210.487 163.876,211.326 162.998,211.941C162.577,212.235 162.138,212.421 161.68,212.547C161.08,212.713 160.445,212.767 159.776,212.852C158.658,212.993 157.712,212.975 157.049,212.893ZM152.165,227.972C152.206,227.96 152.247,227.948 152.289,227.935C152.253,227.948 152.213,227.962 152.171,227.978C152.169,227.976 152.167,227.974 152.165,227.972ZM153.236,229.084C153.227,229.094 153.218,229.103 153.209,229.112C153.186,229.135 153.117,229.212 152.958,229.277C152.945,229.283 152.914,229.294 152.862,229.311C152.859,229.313 152.855,229.314 152.852,229.315C152.859,229.397 152.451,229.406 152.352,229.481C152.223,229.58 152.11,229.708 152.014,229.847C151.902,230.008 151.809,230.184 151.737,230.355C151.483,230.955 151.354,231.604 151.31,232.26C151.264,232.948 151.308,233.644 151.403,234.308C151.737,236.618 152.582,238.845 153.704,240.939C154.842,243.063 156.264,245.051 157.73,246.857C159.459,248.979 162.895,251.783 166.817,254.213C168.293,255.127 169.838,255.987 171.385,256.74C171.491,256.763 171.594,256.81 171.686,256.882C171.689,256.885 171.693,256.887 171.696,256.89C173.674,257.834 175.647,258.598 177.476,259.072C177.595,259.102 177.712,259.131 177.829,259.159C176.669,257.128 176.619,255.269 177.178,253.651C178.394,250.13 182.687,247.741 184.958,247.232C188.428,246.451 191.8,247.551 194.789,249.611C196.929,251.086 198.872,253.053 200.506,255.134C200.997,254.428 201.817,254.286 202.783,254.597C204.23,255.062 206.054,256.636 206.465,257.074L207.235,257.93C209.068,260.008 210.505,262.351 211.726,264.822C213.521,268.454 214.846,272.364 216.276,276.104C217.029,278.056 217.906,279.93 218.863,281.756C221.127,286.077 223.805,290.15 226.113,294.495C227.501,297.083 228.811,299.91 229.909,302.855C229.414,298.259 230.412,294.213 232.15,290.423C232.311,290.071 232.479,289.721 232.653,289.373C232.422,287.917 232.15,286.466 231.832,285.018C231.686,284.846 231.614,284.612 231.654,284.372C231.659,284.344 231.664,284.317 231.669,284.289C230.654,279.868 229.22,275.472 227.292,271.05C225.814,267.669 223.99,264.434 221.754,261.534C219.524,258.642 216.886,256.084 213.779,254.043C212.253,253.043 210.645,252.167 208.996,251.355C205.118,249.444 201.02,247.877 197.229,245.867C193.811,244.058 190.473,242.116 187.188,240.087C182.268,237.048 177.469,233.812 172.711,230.518C168.865,227.857 165.035,225.049 161.767,221.721C159.562,219.475 157.613,216.993 156.084,214.162C155.341,212.788 154.319,210.87 153.923,208.986C153.623,207.556 153.685,206.145 154.376,204.947C154.873,204.087 155.526,203.625 156.22,203.448C157.24,203.187 158.414,203.566 159.429,204.458C160.976,205.817 162.158,208.376 161.728,211.052C161.892,210.985 162.052,210.902 162.208,210.796C162.922,210.311 163.21,209.584 163.249,208.811C163.293,207.948 163.047,207.029 162.693,206.251C161.715,204.106 159.732,202.456 157.56,201.843C155.408,201.235 153.066,201.658 151.368,203.658C150.111,205.141 149.39,206.918 149.034,208.803C148.49,211.681 148.787,214.804 149.327,217.546C150.522,223.456 153.385,227.98 157.135,231.736C162.876,237.486 170.664,241.45 177.713,245.87C178.082,246.104 178.191,246.594 177.956,246.963C177.721,247.332 177.231,247.441 176.862,247.206C169.792,242.638 161.995,238.489 156.251,232.608C155.168,231.499 154.157,230.329 153.236,229.084ZM160.078,211.379C160.073,211.303 160.079,211.224 160.097,211.145C160.521,209.339 159.974,207.561 159.071,206.346C158.057,204.982 156.534,204.253 155.682,205.707C155.166,206.585 155.164,207.631 155.378,208.686C155.544,209.504 155.841,210.328 156.179,211.104C156.317,211.082 156.463,211.098 156.6,211.159C156.711,211.208 156.803,211.282 156.874,211.37C157.355,211.504 158.346,211.569 159.607,211.428C159.766,211.41 159.923,211.395 160.078,211.379ZM157.039,211.859C157.037,211.953 157.016,212.048 156.975,212.139C157.017,212.047 157.039,211.954 157.039,211.859ZM219.232,302.154C216.552,296.674 213.109,292.003 208.984,287.98C203.741,282.869 197.404,278.81 190.23,275.377C187.051,273.867 183.909,272.281 181.006,270.342C179.051,269.037 177.205,267.572 175.528,265.863C174.852,265.176 174.205,264.458 173.588,263.715C172.971,262.971 172.385,262.202 171.832,261.412L170.811,259.789C170.79,259.751 170.755,259.689 170.715,259.615C170.403,260.232 170.189,260.829 170.049,261.392C169.571,263.307 169.933,264.804 170.05,265.225C170.433,266.608 171.141,267.833 172.024,268.942C173.393,270.664 175.174,272.113 176.852,273.436C179.571,275.574 182.496,277.343 185.538,278.898C190.138,281.248 194.999,283.119 199.774,285.125C203.508,286.669 209.369,290.584 214.786,296.567C216.323,298.265 217.825,300.129 219.232,302.154ZM232.409,321.691C232.427,321.468 232.445,321.245 232.463,321.021C232.388,321.206 232.244,321.362 232.048,321.449C231.648,321.625 231.18,321.443 231.004,321.042C228.95,316.302 228.452,311.117 226.952,306.209C226.589,305.023 226.167,303.854 225.645,302.713C224.632,300.507 223.345,298.473 221.931,296.519C218.571,291.877 214.507,287.676 211.612,282.725C210.441,280.73 209.519,278.636 208.707,276.499C206.843,271.591 205.583,266.439 203.294,261.686C201.511,258.011 198.178,253.382 194.101,250.618C192.842,249.765 191.512,249.09 190.135,248.687C193.404,250.888 194.036,253.704 192.924,256.043C191.397,259.252 186.223,261.813 179.363,260.675C179.201,260.7 179.035,260.671 178.89,260.592C178.331,260.486 177.761,260.356 177.181,260.2C175.486,259.751 173.674,259.055 171.845,258.202C171.873,258.255 171.897,258.314 171.916,258.381C171.959,258.531 172.037,258.962 172.107,259.093L173.024,260.59C173.544,261.355 174.096,262.1 174.679,262.821C175.261,263.542 175.874,264.239 176.513,264.907C178.107,266.568 179.865,267.996 181.73,269.27C184.563,271.205 187.638,272.788 190.747,274.301C198.026,277.818 204.416,282.003 209.758,287.184C215.134,292.398 219.454,298.627 222.463,306.307C223.061,307.823 223.606,309.43 224.192,311.035C224.412,311.544 224.624,312.06 224.828,312.582C224.862,312.671 224.879,312.762 224.881,312.852C225.082,313.358 225.29,313.861 225.509,314.357C226.271,316.079 227.163,317.718 228.321,319.138C228.952,319.912 229.699,320.634 230.552,321.119C231.123,321.444 231.744,321.658 232.409,321.691ZM277.087,263.828C272.515,267.067 267.682,269.844 263.102,273.051C260.664,274.759 258.302,276.595 256.087,278.682C250.271,284.2 245.884,290.451 242.576,297.263C239.579,303.436 237.47,310.069 235.961,317.022C236.586,315.775 237.279,314.586 238.031,313.45C242.311,306.98 248.491,302.251 254.482,298.096C258.898,295.033 263.199,292.275 266.544,289.386C270.169,286.237 274.531,281.9 277.125,276.996C278.832,273.77 279.768,270.297 279.164,266.766C279.099,266.391 278.969,266.091 278.806,265.834C278.492,265.338 278.065,264.986 277.698,264.6C277.469,264.359 277.26,264.109 277.087,263.828ZM234.706,319.857C234.662,319.856 234.616,319.85 234.571,319.841C234.562,319.839 234.554,319.837 234.545,319.835L234.052,321.618C234.042,321.656 234.017,321.774 233.984,321.928C234.204,321.221 234.446,320.531 234.706,319.857ZM282.844,242.389C282.724,243.893 282.274,245.469 281.445,247.008C280.056,249.596 278.187,251.88 276.098,253.991C273.031,257.089 269.483,259.812 266.282,262.557C259.144,268.74 250.849,275.787 245.11,284.096C241.288,289.63 238.609,295.725 238.195,302.487C238.177,302.761 238.02,302.993 237.799,303.121C237.545,304.533 237.295,305.948 237.034,307.36C238.256,303.676 239.698,300.111 241.403,296.687C244.843,289.781 249.352,283.443 255.324,277.871C257.58,275.75 259.991,273.892 262.468,272.149C268.231,268.093 274.375,264.683 279.892,260.179C281.986,258.461 283.861,256.445 285.076,254.145C286.266,251.894 286.813,249.368 286.289,246.59C286.151,245.862 285.922,245.143 285.58,244.487C285.257,243.869 284.832,243.309 284.284,242.859C284.247,242.844 284.1,242.783 283.987,242.744C283.609,242.612 283.112,242.472 282.844,242.389ZM268.154,240.731C268.771,239.659 269.539,238.519 270.337,237.815C271.423,236.859 272.563,236.62 273.576,237.654C273.998,238.086 274.224,238.678 274.31,239.327C274.415,240.118 274.315,240.996 274.252,241.648C274.1,243.215 273.672,244.719 273.077,246.166C272.207,248.281 270.98,250.276 269.76,252.171C265.925,258.156 260.508,262.982 255.359,267.989C254.82,268.605 254.281,269.222 253.748,269.846C253.605,270.012 253.407,270.104 253.205,270.118C252.275,271.056 251.364,272.007 250.483,272.978C247.788,275.947 245.379,279.119 243.589,282.731C242.975,283.972 242.429,285.231 241.939,286.506C242.587,285.427 243.281,284.369 244.013,283.33C249.896,274.993 258.304,267.914 265.565,261.723C268.737,258.99 272.262,256.289 275.293,253.198C277.293,251.158 279.075,248.946 280.393,246.448C282.139,243.134 281.983,239.647 280.379,237.358C278.796,235.097 275.795,234.094 271.946,235.602C271.346,235.837 269.613,236.989 268.559,238.233C268.254,238.593 268.007,238.958 267.888,239.313C267.801,239.572 267.797,239.821 267.987,240.026C268.168,240.223 268.222,240.492 268.154,240.731ZM260.88,261.067C263.809,258.111 266.566,255.025 268.787,251.548C269.958,249.706 271.141,247.77 271.97,245.716C272.512,244.375 272.9,242.983 273.029,241.534C273.081,240.961 273.175,240.189 273.078,239.495C273.026,239.126 272.925,238.779 272.683,238.535C272.319,238.169 271.921,238.238 271.532,238.495C271.224,238.698 270.923,238.999 270.63,239.349C269.373,240.85 268.323,243.226 268.047,243.837C266.539,247.182 265.583,250.72 264.3,254.149C263.741,255.645 263.12,257.121 262.37,258.553C261.913,259.424 261.413,260.259 260.88,261.067ZM233.555,307.662C233.129,301.298 232.885,296.855 233.066,292.956C233.073,292.814 233.08,292.673 233.088,292.532C233.062,292.31 233.035,292.088 233.007,291.865C232.995,291.771 232.983,291.676 232.97,291.581C231.435,295.217 230.657,299.113 231.352,303.534C231.529,304.654 231.769,305.753 232.039,306.844C232.432,308.431 232.889,310 233.313,311.588C233.415,310.27 233.496,308.962 233.555,307.662ZM247.028,259.737C245.285,263.297 243.484,266.804 241.741,270.259C240.549,272.629 239.259,274.97 238.149,277.381C237.418,278.969 236.765,280.588 236.274,282.266C236.096,282.875 235.933,283.466 235.783,284.045C240.084,277.499 245.389,271.245 246.813,263.415C247.031,262.18 247.09,260.954 247.028,259.737ZM255.114,236.234C252.904,237.366 250.53,238.32 248.581,239.771C247.442,240.619 246.455,241.646 245.763,243.012C245.169,244.187 245.033,245.375 245.139,246.561C245.309,248.473 246.082,250.377 246.677,252.22C247.053,253.381 247.385,254.553 247.642,255.734C248.948,252.992 250.196,250.219 251.334,247.412C252.823,243.743 254.122,240.018 255.114,236.234ZM259.062,231.01C258.453,231.587 257.908,232.249 257.445,233.017C258.086,232.466 258.67,231.774 259.062,231.01ZM293.997,203.727C293.884,203.807 293.747,203.856 293.599,203.862C293.785,203.857 293.911,203.797 293.997,203.727ZM292.943,203.614C292.851,203.792 292.758,203.97 292.663,204.147C291.307,206.677 289.644,209.054 287.845,211.238C285.973,213.536 283.814,215.584 281.439,217.333C279.059,219.086 276.459,220.538 273.679,221.601C270.068,222.993 265.943,223.917 262.693,225.933C262,226.364 261.348,226.846 260.752,227.397C260.827,227.576 260.889,227.755 260.94,227.935C263.827,226.451 267.251,225.761 270.356,224.839C272.989,224.047 275.494,223.101 277.898,221.941C280.301,220.781 282.6,219.409 284.847,217.824C286.623,216.555 288.348,215.109 289.859,213.476C291.353,211.862 292.635,210.065 293.559,208.083C293.815,207.531 294.037,206.95 294.158,206.354C294.27,205.802 294.291,205.237 294.162,204.671C294.125,204.511 294.078,204.338 294.003,204.18C293.969,204.109 293.929,204.041 293.875,203.989C293.797,204.127 293.423,203.876 293.339,203.852C293.154,203.8 293.027,203.715 292.943,203.614ZM292.123,190.183C292.123,190.182 292.123,190.181 292.123,190.181C292.123,190.181 292.123,190.182 292.123,190.183ZM291.613,190.885C291.501,191.11 291.385,191.333 291.263,191.553C290.451,193.022 289.421,194.366 288.181,195.462C285.689,197.678 282.441,198.987 279.7,200.881C279.045,201.334 278.421,201.823 277.847,202.37C277.807,202.408 277.763,202.44 277.718,202.467C275.832,205.579 273.088,208.161 270.251,210.657C267.065,213.46 263.761,216.153 261.534,219.447C260.046,221.65 259.052,224.127 258.936,227.103C259.82,226.154 260.839,225.374 261.951,224.712C265.311,222.712 269.534,221.816 273.25,220.457C275.942,219.464 278.474,218.107 280.78,216.432C283.089,214.753 285.168,212.758 286.982,210.534C288.71,208.39 290.313,206.065 291.601,203.587C292.879,201.129 293.846,198.521 294.332,195.803C294.5,194.854 294.697,193.869 294.555,192.957C294.474,192.436 294.269,191.944 293.853,191.507C293.617,191.26 293.365,191.102 293.089,191.005C292.782,190.898 292.449,190.867 292.083,190.864C292.035,190.864 291.69,190.98 291.613,190.885ZM259.505,228.773C259.506,228.772 259.507,228.771 259.508,228.771C259.508,228.77 259.508,228.769 259.508,228.769C259.507,228.77 259.506,228.771 259.505,228.773ZM279.213,185.331C279.204,185.141 279.124,184.989 279.003,184.869C279.13,184.999 279.2,185.163 279.213,185.331ZM279.276,185.784C279.54,186.262 279.772,186.781 279.967,187.337C280.739,189.529 280.876,191.931 280.569,194.295C280.341,196.045 279.869,197.774 279.236,199.378C281.902,197.715 284.963,196.538 287.362,194.516C288.52,193.535 289.493,192.323 290.259,190.988C290.394,190.752 290.523,190.513 290.645,190.271C290.641,190.24 290.639,190.208 290.639,190.176C290.642,189.944 290.726,189.68 291,189.517C291.404,188.598 291.719,187.644 291.945,186.688C292.156,185.763 292.344,184.742 292.358,183.737C292.367,183.093 292.303,182.457 292.125,181.862C291.969,181.345 291.687,181.038 291.308,180.893C290.881,180.731 290.36,180.756 289.805,180.858C288.85,181.033 287.886,181.353 286.934,181.737C285.474,182.327 284.042,183.068 282.696,183.687C282.161,183.935 281.635,184.189 281.122,184.468C280.622,184.739 280.136,185.035 279.67,185.372C279.649,185.387 279.452,185.643 279.276,185.784ZM268.012,185.668C267.41,184.682 266.463,184.518 265.479,184.736C263.738,185.122 261.885,186.566 260.997,187.574L259.618,189.285C259.366,189.627 259.12,189.975 258.883,190.328C258.645,190.682 258.416,191.04 258.195,191.403C257.945,191.814 257.705,192.231 257.474,192.653C257.241,193.078 257.018,193.507 256.801,193.938C255.124,197.294 253.942,200.866 253.386,204.529C252.831,208.188 252.901,211.933 253.626,215.622C254.344,219.198 255.932,223.576 256.64,227.755C257.015,222.51 256.427,217.268 256.913,212.013C257.066,210.357 257.322,208.7 257.744,207.041C258.91,202.443 260.709,196.658 263.468,191.762C264.761,189.467 266.266,187.368 268.012,185.668ZM257.867,223.722C258.369,221.84 259.209,220.152 260.278,218.592C262.593,215.211 266.002,212.442 269.305,209.574C272.032,207.206 274.687,204.771 276.516,201.814C276.509,201.594 276.594,201.371 276.769,201.209C276.838,201.146 276.908,201.084 276.979,201.023C277.104,200.796 277.224,200.566 277.338,200.332C278.261,198.451 278.965,196.305 279.261,194.121C279.553,191.963 279.45,189.767 278.754,187.76C278.148,186.011 277.147,184.655 275.851,184.016C274.58,183.39 273.043,183.491 271.38,184.54C268.58,186.307 266.322,189.125 264.492,192.342C261.764,197.134 259.99,202.81 258.829,207.319C258.419,208.919 258.168,210.518 258.019,212.115C257.657,215.989 257.875,219.856 257.867,223.722ZM234.445,231.257C234.411,231.317 234.376,231.377 234.341,231.436C232.235,235.077 229.299,238.331 227.171,241.959C225.794,244.305 224.764,246.81 224.544,249.685C224.387,251.789 224.771,253.82 225.449,255.799C227.056,260.486 230.281,264.883 232.131,269.256C232.485,270.09 232.776,270.915 233.011,271.735C233.58,264.85 234.481,257.98 234.911,251.091C235.157,247.159 235.247,243.221 235.035,239.272C234.895,236.708 234.716,234.009 234.445,231.257ZM227.98,204.799C230.291,208.457 231.929,212.644 233.112,217.033C233.994,220.301 234.622,223.683 235.083,227.041C235.33,226.299 235.534,225.546 235.695,224.784C236.14,222.674 236.253,220.494 236.046,218.273C235.83,215.994 235.192,213.976 234.218,212.122C233.235,210.251 231.91,208.55 230.336,206.916C229.844,206.406 229.338,205.917 228.805,205.461C228.538,205.231 228.263,205.01 227.98,204.799ZM244.433,153.431C244.565,153.36 244.683,153.241 244.75,153.037C244.691,153.208 244.577,153.344 244.433,153.431ZM243.54,153.339C243.467,153.402 243.393,153.464 243.317,153.526C241.555,154.974 239.334,156.163 237.702,157.805C236.897,158.614 236.242,159.538 235.883,160.674C236.223,161.096 236.543,161.537 236.841,161.994C238.448,164.458 239.441,167.374 239.74,170.214C240.31,175.243 239.39,179.923 237.603,184.293C235.575,189.253 232.408,193.815 228.931,197.991C231.366,196.572 234.389,195.624 236.303,193.937C239.079,191.478 241.11,188.52 242.562,185.273C244.028,181.998 244.906,178.434 245.439,174.82C245.779,172.411 245.956,169.973 245.954,167.534C245.952,165.099 245.77,162.666 245.409,160.263C245.256,159.253 245.092,158.244 244.88,157.246C244.741,156.589 244.581,155.937 244.391,155.292L243.871,153.843C243.86,153.816 243.505,153.471 243.54,153.339ZM229.975,151.985C229.973,151.985 229.971,151.985 229.969,151.985C229.818,151.971 229.55,151.878 229.287,151.631C229.082,151.437 228.819,151.066 228.615,150.964C228.149,150.733 227.664,150.522 227.172,150.331C226.672,150.137 226.166,149.961 225.664,149.802C224.305,149.373 222.868,149.074 221.417,148.925C219.965,148.775 218.498,148.774 217.081,148.936C214.416,149.247 211.819,150.084 209.488,151.393C207.157,152.702 205.094,154.479 203.472,156.628C202.827,157.493 201.682,159.13 201.489,160.506C201.385,161.247 201.651,161.875 202.639,162.121C204.745,162.644 206.76,161.734 208.757,160.675C210.947,159.513 213.114,158.166 215.3,157.866C216.558,157.694 217.823,157.853 219.108,158.529C219.127,158.539 219.147,158.551 219.165,158.563C219.555,158.074 220.001,157.651 220.49,157.323C221.302,156.779 222.234,156.477 223.24,156.541C223.25,156.533 223.26,156.524 223.271,156.516C224.052,155.904 225.045,155.645 226.098,155.633C226.765,155.626 227.455,155.715 228.115,155.855C228.109,155.757 228.122,155.657 228.156,155.56C228.189,155.467 228.238,155.385 228.3,155.315C228.472,154.979 228.791,154.179 228.827,154.104C229.081,153.57 229.353,153.048 229.647,152.537C229.753,152.352 229.863,152.168 229.975,151.985ZM229.102,155.107C229.103,155.107 229.103,155.107 229.103,155.107C229.103,155.107 229.103,155.107 229.102,155.107ZM229.476,156.217C229.679,156.282 229.875,156.348 230.06,156.415C231.994,157.11 233.665,158.269 235.052,159.724C235.489,158.69 236.143,157.813 236.921,157.029C238.577,155.361 240.816,154.132 242.598,152.655C243.419,151.971 244.086,151.248 244.338,150.452C244.57,149.72 244.395,148.942 243.667,148.092C242.253,146.442 240.454,146.166 238.674,146.624C235.875,147.344 233.123,149.8 231.752,151.831C231.444,152.289 231.159,152.759 230.893,153.24C230.626,153.722 230.379,154.216 230.149,154.72C230.112,154.802 229.771,155.691 229.6,156.025C229.563,156.099 229.521,156.162 229.476,156.217ZM229.392,150.915C229.375,150.967 229.364,151.027 229.362,151.097C229.364,151.033 229.375,150.973 229.392,150.915ZM203.198,155.176C202.502,155.073 201.395,154.905 201.228,154.92C200.314,155.007 199.398,155.259 198.558,155.663C197.719,156.067 196.953,156.617 196.336,157.301C194.88,158.923 194.474,160.96 194.853,162.889C195.239,164.85 196.425,166.698 198.122,167.914C202.372,170.881 208.653,170.693 213.493,172.739C215,173.375 216.374,174.216 217.53,175.396C217.198,173.656 216.968,171.988 216.875,170.311C216.725,167.582 216.936,164.83 217.668,161.711C217.815,161.083 218.035,160.471 218.318,159.902C217.371,159.389 216.43,159.258 215.489,159.366C213.455,159.599 211.432,160.842 209.379,161.877C207.071,163.041 204.729,163.952 202.332,163.31C200.551,162.834 200.119,161.673 200.327,160.335C200.568,158.781 201.838,156.923 202.579,155.954C202.779,155.689 202.986,155.43 203.198,155.176ZM194.824,165.915C194.769,165.926 194.712,165.931 194.654,165.929C192.256,165.811 190.682,167.592 189.915,169.748C189.1,172.037 189.159,174.78 190.209,176.434C191.273,178.097 192.905,179.724 194.881,181.313C196.887,182.926 199.238,184.501 201.691,186.053C205.208,188.28 208.928,190.466 212.161,192.672C211.972,192.407 211.791,192.136 211.618,191.861C210.249,189.686 209.396,187.207 209.282,184.546C209.133,181.049 210.852,178.512 213.15,177.487C214.333,176.96 215.684,176.824 217.037,177.172C215.947,175.712 214.53,174.734 212.936,174.017C208.085,171.837 201.731,171.89 197.485,168.809C196.394,168.039 195.49,167.039 194.824,165.915ZM188.148,173.53C188.028,173.529 187.907,173.498 187.795,173.436C187.606,173.327 187.341,173.223 187.059,173.123C186.588,172.955 186.078,172.803 185.735,172.682C184.902,172.389 183.982,172.195 183.069,172.188C182.191,172.18 181.318,172.34 180.547,172.756C179.397,173.379 178.91,174.42 178.803,175.58C178.63,177.473 179.403,179.662 180.18,181.163C182.311,185.246 185.685,188.293 189.635,190.398C193.607,192.514 198.155,193.674 202.571,194.063C205.161,194.283 209.408,195.237 213.657,196.54C214.275,196.73 214.893,196.927 215.507,197.13C211.786,193.731 206.217,190.391 201.065,187.027C198.6,185.417 196.229,183.805 194.191,182.173C192.105,180.503 190.361,178.815 189.22,177.074C188.599,176.135 188.243,174.881 188.148,173.53ZM218.036,198.017C218.076,198.032 218.116,198.047 218.157,198.062C218.119,198.039 218.081,198.016 218.044,197.993C218.041,198.001 218.039,198.009 218.036,198.017ZM184.418,188.214C184.278,188.533 184.14,188.747 184.038,189.09C183.984,189.271 183.943,189.495 183.919,189.808C183.759,191.908 184.648,193.801 186.028,195.408C188.161,197.892 191.447,199.703 194.101,200.571C196.449,201.322 198.837,201.664 201.242,201.748C204.901,201.874 208.595,201.42 212.253,201.054C214.946,200.774 217.827,200.486 220.619,200.702C218.432,199.684 215.837,198.703 213.24,197.859C209.115,196.518 204.984,195.522 202.46,195.27C197.897,194.83 193.223,193.558 189.118,191.368C187.441,190.474 185.859,189.427 184.418,188.214ZM232.842,315.007C232.872,315.33 232.898,315.652 232.919,315.974C232.944,315.715 232.968,315.456 232.993,315.196C232.941,315.139 232.89,315.076 232.842,315.007ZM201.412,256.342C202.597,257.996 203.579,259.675 204.306,261.199C206.605,265.982 207.86,271.17 209.746,276.102C210.54,278.179 211.451,280.208 212.599,282.142C215.518,287.037 219.594,291.175 222.974,295.756C224.458,297.767 225.81,299.862 226.882,302.138C227.444,303.329 227.903,304.55 228.297,305.789C229.551,309.725 230.139,313.853 231.439,317.767C231.457,314.228 230.853,310.578 229.861,307.021C228.679,302.786 226.947,298.684 225.062,295.049C222.779,290.691 220.148,286.59 217.887,282.267C216.912,280.403 216,278.501 215.223,276.513C213.768,272.824 212.425,268.961 210.603,265.385C209.404,263.034 207.997,260.809 206.214,258.844L205.462,258.034C205.195,257.759 204.251,256.954 203.274,256.402C202.884,256.182 202.49,256.002 202.137,255.934C201.95,255.897 201.772,255.869 201.69,256.038C201.626,256.168 201.528,256.271 201.412,256.342ZM232.471,320.445C232.484,320.48 232.494,320.515 232.502,320.55C232.506,320.508 232.509,320.467 232.513,320.426C232.499,320.433 232.485,320.439 232.471,320.445ZM179.875,259.543C184.363,260.158 188.02,259.127 190.141,257.361C191.547,256.191 192.246,254.698 191.911,253.203C191.516,251.435 189.742,249.76 186.35,248.549C186.235,248.507 186.135,248.44 186.055,248.358C185.788,248.395 185.52,248.445 185.252,248.508C183.578,248.902 180.639,250.461 179.145,252.798C177.99,254.607 177.781,256.9 179.833,259.484C179.848,259.503 179.862,259.523 179.875,259.543ZM171.914,258.631C171.918,258.599 171.919,258.564 171.918,258.524C171.919,258.56 171.918,258.596 171.914,258.631ZM235.571,162.292C234.643,169.854 236.851,178.097 235.52,185.528C235.476,185.774 235.428,186.019 235.376,186.263C235.786,185.468 236.167,184.661 236.513,183.84C238.278,179.666 239.156,175.167 238.63,170.337C238.32,167.679 237.369,164.951 235.83,162.664C235.745,162.538 235.659,162.414 235.571,162.292ZM225.551,199.537C225.477,199.482 225.391,199.401 225.327,199.294C225.294,199.494 225.258,199.694 225.221,199.892C225.331,199.774 225.441,199.656 225.551,199.537ZM225.283,157.167C225.426,157.246 225.57,157.332 225.715,157.427C226.834,158.156 227.765,159.159 228.544,160.297C229.665,161.935 230.471,163.853 231.075,165.6C232.274,169.011 233.011,172.725 233.28,176.472C233.549,180.222 233.347,184.006 232.63,187.56C232.33,189.058 231.871,190.474 231.296,191.845C231.188,192.104 231.075,192.361 230.958,192.617C232.674,190.327 233.63,187.853 234.132,185.268C235.61,177.664 233.316,169.148 234.564,161.446C234.582,161.331 234.602,161.217 234.625,161.106C233.266,159.577 231.586,158.366 229.612,157.695C228.636,157.364 227.336,157.027 226.129,157.065C225.839,157.074 225.554,157.105 225.283,157.167ZM219.832,178.647C220.194,178.95 220.547,179.297 220.888,179.691C223.254,182.422 224.68,185.974 225.319,189.704C225.813,192.589 225.835,195.58 225.465,198.371C225.511,198.303 225.568,198.224 225.636,198.135C226.26,197.313 227.921,195.349 228.073,195.097C228.82,193.861 229.498,192.613 230.064,191.318C230.625,190.035 231.078,188.707 231.38,187.301C232.116,183.861 232.365,180.19 232.134,176.55C231.902,172.902 231.189,169.286 230.038,165.962C229.455,164.307 228.689,162.486 227.613,160.94C226.913,159.935 226.081,159.048 225.081,158.41C224.628,158.122 224.185,157.936 223.757,157.837C223.652,157.84 223.546,157.821 223.448,157.78C222.612,157.666 221.843,157.889 221.184,158.344C220.065,159.116 219.264,160.509 218.938,161.999C218.288,164.987 218.126,167.617 218.313,170.22C218.502,172.864 219.052,175.478 219.81,178.408C219.83,178.488 219.837,178.569 219.832,178.647ZM223.582,200.021C224.257,196.884 224.392,193.343 223.84,189.951C223.275,186.481 221.995,183.164 219.819,180.609C217.936,178.397 215.57,177.897 213.693,178.717C211.811,179.538 210.47,181.641 210.573,184.495C210.661,186.932 211.431,189.204 212.671,191.203C213.922,193.221 215.65,194.962 217.641,196.319C219.591,197.646 221.682,198.673 223.551,199.999C223.562,200.006 223.572,200.014 223.582,200.021ZM226.323,198.279C226.323,198.279 226.323,198.278 226.323,198.278C226.323,198.278 226.323,198.279 226.323,198.279Z"></path>
  </g>
</svg>
