<svg xmlns="http://www.w3.org/2000/svg" viewBox="0 0 512 512" id="love">
  <path d="M448.2 90.31H229.53a1.5 1.5 0 0 0-1.5 1.5v52L63.16 220.65a1.51 1.51 0 0 0-.77.84 1.48 1.48 0 0 0 0 1.15l92.41 198.18a1.51 1.51 0 0 0 1.36.87 1.45 1.45 0 0 0 .64-.14L355 329.14a1.51 1.51 0 0 0 .72-2L348.68 312h99.52a1.5 1.5 0 0 0 1.5-1.5V91.81a1.5 1.5 0 0 0-1.5-1.5ZM228 147.08v83.06l-64.94 30.29a1.49 1.49 0 0 0-.26-.62l27.2-28.69a14.25 14.25 0 1 0-24.32-12.54l-7.09 36.1-28.38-60.87-2.72 1.27 28.26 60.61-31.89-17.61a14.25 14.25 0 1 0-6.91 26.72h.87l39.43-2.36a1.5 1.5 0 0 0 .31.6L97.61 291l-31.82-68.27Zm-66.88 110.17 7.47-38.09a11.24 11.24 0 1 1 19.2 9.89Zm-4.76 2.22-38.75 2.31a11.25 11.25 0 0 1-5.24-21.5 11.33 11.33 0 0 1 4.58-1 11.19 11.19 0 0 1 5.43 1.41Zm196 67.58L156.94 418.2 98.87 293.68l61.25-28.56 57.64 123.62 2.72-1.27-57.64-123.62 65.16-30.4v77a1.5 1.5 0 0 0 1.5 1.5h115.87ZM446.7 309H231V93.31h215.7Z"></path>
  <path d="M272.84 210.93a1.31 1.31 0 0 0 .3.41l64.6 64.66a1.44 1.44 0 0 0 .84.4 2.09 2.09 0 0 0 .35 0 1.5 1.5 0 0 0 1.07-.4l64.61-64.61a1.3 1.3 0 0 0 .27-.39l4.5-4.5a47.19 47.19 0 1 0-66.73-66.73l-3.77 3.77-3.78-3.77a47.19 47.19 0 0 0-66.73 66.73Zm-2.36-69.09a44.23 44.23 0 0 1 62.49 0l4.84 4.84a1.55 1.55 0 0 0 2.12 0l4.84-4.84a44.18 44.18 0 0 1 62.48 62.48l-4.84 4.84a1.27 1.27 0 0 0-.26.39l-63.28 63.28-63.26-63.25a1.5 1.5 0 0 0-.29-.42l-4.84-4.84a44.18 44.18 0 0 1 0-62.48Z"></path>
</svg>
